<svg xmlns="http://www.w3.org/2000/svg" xmlns:xlink="http://www.w3.org/1999/xlink" version="1.1" id="Layer_1" x="0px" y="0px" viewBox="0 0 304.7 315" style="enable-background:new 0 0 304.7 315;" xml:space="preserve">
      <style type="text/css">.st0{fill:url(#SVGID_1_);}</style>
    <g id="color_index_g">
              <linearGradient id="SVGID_1_" gradientUnits="userSpaceOnUse" x1="422.763" y1="428.7181" x2="-83.1511" y2="894.6966" gradientTransform="matrix(1 0 0 1 0 -476)">
                      <stop offset="0.2691" style="stop-color:#4231ea"/>
            <stop offset="0.8183" style="stop-color:#2affb3"/>
                  </linearGradient>
        <path class="st0" d="M156.7,157.5c0,43.6,35.5,79.2,79.2,79.2h68.8V216h-68.8c-32.3,0-58.5-26.3-58.5-58.5&#9;&#9;c0-17.1,7.4-32.5,19.1-43.2c11.5,1.4,20.2,5.6,25.8,12.5c12.8,16,7.4,42.3,7.3,42.5l-2.8,12.6h12.9c19.5,0,36.5-10.8,45.3-26.7&#9;&#9;c0.1-0.1,0.1-0.2,0.1-0.3c11.8-24,5.7-53.8,2.1-66.2c-10.5-35.1-41.1-60.6-46.7-65.1l0,0C216.3,8.6,187.9,0,157.5,0&#9;&#9;C70.7,0,0,70.7,0,157.5S70.7,315,157.5,315h147.2v-20.7H157.5c-75.4,0-136.8-61.4-136.8-136.8C20.7,82,82.1,20.6,157.5,20.6&#9;&#9;c29.7,0,57.1,9.5,79.6,25.6c-12.6-4.6-26.2-7.1-40.4-7.1c-65.3,0-118.3,53.1-118.3,118.3s53.1,118.3,118.3,118.3h108v-20.6h-108&#9;&#9;c-53.9,0-97.7-43.8-97.7-97.7s43.8-97.7,97.7-97.7c23.2,0,44.5,8.1,61.2,21.6c-7-2-14.4-3.1-22-3.1&#9;&#9;C192.2,78.3,156.7,113.8,156.7,157.5z M270.7,130.1c0,13-8,24.2-19.4,28.8c0.4-12.5-1.5-30.7-12.9-44.9c-4.4-5.6-9.9-10-16.3-13.4&#9;&#9;c4.4-1.1,9-1.7,13.7-1.7c4.4,0,8.7,0.5,12.8,1.4C261.4,104.4,270.7,116.2,270.7,130.1z"/>
          </g>
  </svg>
